<svg width="563" height="584" viewBox="0 0 563 584" fill="none" xmlns="http://www.w3.org/2000/svg">
<g opacity="0.4">
<path fill-rule="evenodd" clip-rule="evenodd" d="M280.668 14L520.417 437.292H37.8242L280.668 14ZM45.5593 432.812H512.73L280.643 23.0463L45.5593 432.812Z" fill="url(#paint0_angular_105_3)"/>
<path fill-rule="evenodd" clip-rule="evenodd" d="M281.12 146.174L214.592 26.5583L347.648 26.5583L281.12 146.174ZM340.03 31.0383L222.21 31.0383L281.12 136.957L340.03 31.0383Z" fill="url(#paint1_angular_105_3)"/>
<path fill-rule="evenodd" clip-rule="evenodd" d="M281.12 17.4624C128.336 17.4624 4.48 141.318 4.48 294.102C4.48 446.886 128.336 570.742 281.12 570.742C433.904 570.742 557.76 446.886 557.76 294.102C557.76 141.318 433.904 17.4624 281.12 17.4624ZM0 294.102C0 138.844 125.862 12.9824 281.12 12.9824C436.378 12.9824 562.24 138.844 562.24 294.102C562.24 449.361 436.378 575.222 281.12 575.222C125.862 575.222 0 449.361 0 294.102Z" fill="url(#paint2_angular_105_3)"/>
<path fill-rule="evenodd" clip-rule="evenodd" d="M283.12 -59V456.437H279.12V-59H283.12Z" fill="url(#paint3_angular_105_3)"/>
<path fill-rule="evenodd" clip-rule="evenodd" d="M279.092 583.032V453.678H283.092V583.032H279.092Z" fill="url(#paint4_angular_105_3)"/>
</g>
<path d="M245.859 83.5L280.5 23.5L315.141 83.5H245.859Z" fill="white" stroke="white" stroke-width="0.5"/>
<path d="M277.242 42.8766C277.242 42.2311 277.282 41.5697 277.233 40.9185C277.161 39.9739 276.747 39.2695 276.078 38.7984C276.016 38.7542 275.954 38.7123 275.808 38.6104H280.158C280.087 38.6772 280.052 38.7225 280.008 38.7485C279.305 39.1664 278.881 39.8686 278.794 40.8052C278.728 41.5085 278.781 42.2277 278.781 43.0114C281.655 43.1994 284.107 44.7521 286.508 46.6865C284.999 49.3434 283.521 51.946 282.043 54.5486C282.028 54.5418 282.012 54.535 281.996 54.5282C282.019 54.4444 282.031 54.3526 282.066 54.2779C282.635 53.0717 283.206 51.869 283.777 50.664C284.612 48.9017 284.369 47.0534 283.052 45.6933C281.899 44.503 280.533 43.8665 279.047 43.615C278.962 43.6003 278.873 43.6252 278.742 43.6354C278.742 43.8483 278.742 44.0329 278.742 44.2176C278.742 48.955 278.747 53.6924 278.732 58.4286C278.731 58.8896 278.855 59.132 279.173 59.3517C280.92 60.5578 282.669 61.7606 284.389 63.0245C287.636 65.4119 288.856 70.0655 287.188 74.2378C287.109 74.4371 287.032 74.6387 286.955 74.8357C286.992 74.8618 287.005 74.8799 287.018 74.8799C288.516 74.881 290.018 74.975 291.51 74.8573C293.134 74.7293 294.338 73.0962 294.471 71.095C294.561 69.7416 294.65 68.3871 294.743 67.0337C294.756 66.8468 294.787 66.6633 294.851 66.481V75.5379C294.667 75.5379 294.506 75.5379 294.346 75.5379C291.913 75.5368 289.481 75.5424 287.049 75.5243C286.73 75.5221 286.527 75.6251 286.325 75.9502C284.885 78.2651 282.938 79.546 280.644 80.0499C278.764 80.4622 276.873 80.5188 274.985 80.0896C273.491 79.7498 272.123 78.9956 270.853 77.9978C270.121 77.4236 269.455 76.7214 268.766 76.0634C268.613 75.9173 268.495 75.7169 268.35 75.5266C269.689 73.2049 271.008 70.916 272.327 68.6272C272.344 68.6362 272.363 68.6453 272.38 68.6543C272.344 68.754 272.317 68.8605 272.272 68.9533C271.785 69.9568 271.294 70.9568 270.807 71.9591C270.506 72.5775 270.268 73.2253 270.172 73.9456C269.966 75.4926 270.404 76.7259 271.378 77.6841C272.045 78.3398 272.834 78.717 273.631 79.0499C276.122 80.0919 278.639 80.2244 281.151 79.2062C282.737 78.5641 284.085 77.4428 285.136 75.8165C285.173 75.7599 285.203 75.6987 285.294 75.539C284.199 75.5187 283.172 75.53 282.146 75.5277C281.106 75.5255 280.066 75.5243 279.025 75.5243C277.987 75.5243 276.949 75.5243 275.886 75.453C275.968 75.393 276.05 75.3363 276.129 75.2729C276.897 74.6579 277.268 73.7813 277.267 72.6556C277.266 70.6555 277.267 68.6543 277.267 66.6543C277.267 64.7482 277.254 62.8422 277.277 60.9361C277.283 60.4412 277.171 60.1614 276.807 59.9168C275.369 58.9541 273.94 57.9734 272.533 56.945C270.96 55.7955 269.895 54.1307 269.546 51.8894C269.217 49.7727 269.683 47.8881 270.867 46.2946C271.953 44.8314 273.324 43.9412 274.857 43.4395C275.621 43.1892 276.412 43.0669 277.241 42.8755L277.242 42.8766ZM278.774 61.3189V74.8731C278.864 74.8912 278.922 74.9128 278.981 74.9128C281.107 74.9128 283.233 74.906 285.359 74.9173C285.61 74.9184 285.713 74.7667 285.804 74.5322C286.583 72.5276 286.697 70.4766 286.068 68.3859C285.578 66.7607 284.648 65.5761 283.475 64.6882C282.135 63.6723 280.763 62.7198 279.403 61.7425C279.209 61.602 279.008 61.4763 278.774 61.3189ZM277.237 43.5346C276.61 43.5652 276.025 43.6592 275.448 43.8393C273.933 44.3116 272.581 45.1326 271.573 46.6627C270.109 48.8847 270.182 51.7965 271.793 53.7886C272.274 54.3821 272.829 54.9144 273.413 55.3447C274.618 56.2315 275.866 57.0322 277.098 57.8646C277.132 57.8873 277.186 57.868 277.237 57.868V43.5346Z" fill="#16171B"/>
<defs>
<radialGradient id="paint0_angular_105_3" cx="0" cy="0" r="1" gradientUnits="userSpaceOnUse" gradientTransform="translate(278.588 217.954) rotate(-89.7876) scale(143.529 165.985)">
<stop offset="0.21875" stop-color="#CAA56D" stop-opacity="0"/>
<stop offset="1" stop-color="#C39D64"/>
</radialGradient>
<radialGradient id="paint1_angular_105_3" cx="0" cy="0" r="1" gradientUnits="userSpaceOnUse" gradientTransform="translate(281.267 88.54) rotate(90.2072) scale(40.5591 45.7639)">
<stop offset="0.21875" stop-color="#CAA56D" stop-opacity="0"/>
<stop offset="1" stop-color="#C39D64"/>
</radialGradient>
<radialGradient id="paint2_angular_105_3" cx="0" cy="0" r="1" gradientUnits="userSpaceOnUse" gradientTransform="translate(280.5 283.885) rotate(-89.8137) scale(190.643 193.38)">
<stop offset="0.21875" stop-color="#CAA56D" stop-opacity="0"/>
<stop offset="1" stop-color="#C39D64"/>
</radialGradient>
<radialGradient id="paint3_angular_105_3" cx="0" cy="0" r="1" gradientUnits="userSpaceOnUse" gradientTransform="translate(281.116 189.352) rotate(-89.9986) scale(174.772 1.37579)">
<stop offset="0.21875" stop-color="#CAA56D" stop-opacity="0"/>
<stop offset="1" stop-color="#C39D64"/>
</radialGradient>
<radialGradient id="paint4_angular_105_3" cx="0" cy="0" r="1" gradientUnits="userSpaceOnUse" gradientTransform="translate(281.088 516.005) rotate(-89.9942) scale(43.8609 1.37579)">
<stop offset="0.21875" stop-color="#CAA56D" stop-opacity="0"/>
<stop offset="1" stop-color="#C39D64"/>
</radialGradient>
</defs>
</svg>
